<svg viewBox="0 0 1106 882" fill="none" xmlns="http://www.w3.org/2000/svg">
<g filter="url(#filter0_g_0_1)">
<path d="M961.753 643.58C961.97 643.797 962.184 644.015 962.397 644.234L986.081 667.918C1012.17 694.011 1012.17 736.317 986.082 762.41C959.989 788.503 917.683 788.503 891.59 762.411L808.574 679.395C808.576 679.393 808.579 679.393 808.581 679.392L784.242 655.053C803.806 644.77 822.172 631.402 838.622 614.952C855.076 598.498 868.446 580.126 878.731 560.558L961.753 643.58ZM396.235 395.91C422.328 369.817 464.634 369.817 490.727 395.91L598.105 503.288L598.104 503.288L599.535 504.72C635.512 540.697 693.843 540.696 729.82 504.72C765.797 468.743 765.797 410.412 729.82 374.435L584.431 229.046C664.364 199.177 757.888 216.38 822.165 280.657C909.933 368.425 909.933 510.725 822.166 598.494C734.397 686.261 592.096 686.262 504.328 598.494C504.09 598.255 503.854 598.014 503.617 597.775L503.613 597.78L396.235 490.402C370.142 464.309 370.142 422.003 396.235 395.91ZM284.562 284.234C371.374 197.423 511.536 196.477 599.511 281.396L599.534 281.372L601.781 283.619C601.987 283.824 602.194 284.028 602.4 284.234C602.527 284.361 602.652 284.49 602.779 284.617L714.069 395.908C740.163 422.001 740.163 464.306 714.07 490.4C687.977 516.493 645.671 516.493 619.577 490.4L608.122 478.944L608.121 478.945L653.222 524.045L653.221 524.046L507.184 378.009C471.207 342.033 412.876 342.032 376.9 378.009C340.923 413.986 340.923 472.316 376.9 508.293L522.291 653.685C442.359 683.55 348.838 666.346 284.563 602.071C196.796 514.302 196.795 372.002 284.562 284.234ZM119.917 119.591C146.01 93.4983 188.316 93.499 214.409 119.592L297.425 202.608L297.423 202.609L321.765 226.95C302.199 237.235 283.831 250.603 267.379 267.055C250.926 283.507 237.558 301.877 227.273 321.443L144.256 238.426C144.188 238.358 144.121 238.289 144.054 238.221L119.917 214.084C93.8238 187.99 93.8236 145.684 119.917 119.591Z" fill="black"/>
</g>
<g filter="url(#filter1_g_0_1)">
<path d="M878.719 560.562C868.435 580.128 855.067 598.498 838.615 614.95C822.164 631.4 803.797 644.768 784.233 655.052L808.577 679.396C808.575 679.397 808.572 679.398 808.57 679.399L767.777 638.605C787.342 628.321 805.71 614.954 822.161 598.502C838.614 582.049 851.983 563.679 862.268 544.111L878.719 560.562ZM874.246 362.053C874.428 362.549 874.609 363.045 874.787 363.541L874.246 362.053ZM874.219 361.978L874.246 362.053C874.089 361.626 873.931 361.198 873.772 360.771C873.922 361.173 874.071 361.575 874.219 361.978ZM376.887 378.021C398.477 356.431 428.117 347.798 456.145 352.12L456.146 352.119C456.148 352.12 456.151 352.12 456.154 352.121C456.327 352.147 456.5 352.176 456.673 352.204C456.847 352.231 457.021 352.259 457.195 352.288C457.332 352.31 457.469 352.333 457.605 352.357C475.717 355.445 493.083 363.963 507.08 377.916L619.573 490.408C619.607 490.442 619.641 490.476 619.675 490.509L653.218 524.053L653.22 524.05L619.982 490.812C646.107 516.499 688.107 516.365 714.065 490.408C740.158 464.315 740.158 422.009 714.066 395.916L599.529 281.38L599.503 281.406C584.414 266.841 567.788 254.803 550.161 245.29C561.204 238.853 572.68 233.438 584.449 229.042L584.451 229.044C584.443 229.047 584.434 229.051 584.425 229.054L729.814 374.443C765.791 410.42 765.791 468.751 729.815 504.728C708.223 526.319 678.579 534.952 650.548 530.627V530.63C631.872 527.749 613.911 519.116 599.525 504.73L509.326 414.53L509.325 414.531L490.711 395.917C482.772 387.978 473.331 382.454 463.303 379.346C463.005 379.254 462.707 379.164 462.409 379.076C461.676 378.86 460.94 378.658 460.202 378.467C459.643 378.323 459.083 378.186 458.522 378.056C458.024 377.942 457.524 377.833 457.024 377.73C453.877 377.081 450.691 376.661 447.495 376.469V376.468C429.078 375.362 410.292 381.846 396.22 395.917C370.127 422.01 370.127 464.317 396.22 490.41L503.597 597.787L503.6 597.784C503.837 598.024 504.074 598.265 504.312 598.504C520.156 614.347 537.777 627.331 556.533 637.454C545.502 643.884 534.038 649.293 522.282 653.687L375.947 507.351C340.913 471.305 341.227 413.681 376.887 378.021ZM866.018 342.529C866.967 344.512 867.882 346.507 868.769 348.511C868.229 347.291 867.68 346.073 867.116 344.86L866.018 342.529ZM825.697 284.278C840.375 299.62 852.46 316.53 861.95 334.454L862.552 335.6C852.973 317.251 840.686 299.948 825.695 284.28L825.697 284.278ZM260.208 165.403L338.936 244.132C327.376 250.209 316.233 257.363 305.657 265.593C305.607 265.632 305.556 265.672 305.506 265.711L305.334 265.846C298.129 271.473 291.189 277.601 284.56 284.229C268.104 300.685 254.732 319.059 244.447 338.63L244.442 338.625C240.042 346.996 236.206 355.586 232.935 364.339L232.934 364.338C236.205 355.585 240.041 346.995 244.441 338.624L227.255 321.438C237.539 301.873 250.908 283.505 267.359 267.054C283.811 250.602 302.18 237.233 321.746 226.949L259.558 164.761C259.775 164.973 259.992 165.187 260.208 165.403Z" fill="white"/>
</g>
<defs>
<filter id="filter0_g_0_1" x="0.347656" y="0.0214844" width="1105.3" height="881.959" filterUnits="userSpaceOnUse" color-interpolation-filters="sRGB">
<feFlood flood-opacity="0" result="BackgroundImageFix"/>
<feBlend mode="normal" in="SourceGraphic" in2="BackgroundImageFix" result="shape"/>
<feTurbulence type="fractalNoise" baseFrequency="0.033333335071802139 0.033333335071802139" numOctaves="3" seed="3365" />
<feDisplacementMap in="shape" scale="200" xChannelSelector="R" yChannelSelector="G" result="displacedImage" width="100%" height="100%" />
<feMerge result="effect1_texture_0_1">
<feMergeNode in="displacedImage"/>
</feMerge>
</filter>
<filter id="filter1_g_0_1" x="217.254" y="154.762" width="671.465" height="534.637" filterUnits="userSpaceOnUse" color-interpolation-filters="sRGB">
<feFlood flood-opacity="0" result="BackgroundImageFix"/>
<feBlend mode="normal" in="SourceGraphic" in2="BackgroundImageFix" result="shape"/>
<feTurbulence type="fractalNoise" baseFrequency="0.10000000149011612 0.10000000149011612" numOctaves="3" seed="1506" />
<feDisplacementMap in="shape" scale="20" xChannelSelector="R" yChannelSelector="G" result="displacedImage" width="100%" height="100%" />
<feMerge result="effect1_texture_0_1">
<feMergeNode in="displacedImage"/>
</feMerge>
</filter>
</defs>
</svg>
